<svg width="146" height="38" viewBox="0 0 146 38" fill="none" xmlns="http://www.w3.org/2000/svg">
<path d="M36.1501 30.7849V4.674H46.5038C48.2687 4.674 49.7132 5.03061 50.8375 5.74382C51.9738 6.44495 52.8139 7.34553 53.3579 8.44558C53.914 9.54562 54.192 10.6819 54.192 11.8545C54.192 13.293 53.8475 14.5139 53.1584 15.5173C52.4815 16.5206 51.5567 17.1976 50.3841 17.5481V16.6415C52.0282 17.0162 53.2733 17.7959 54.1195 18.9806C54.9777 20.1653 55.4069 21.5131 55.4069 23.0242C55.4069 24.5715 55.1107 25.9254 54.5184 27.0859C53.926 28.2464 53.0436 29.153 51.871 29.8058C50.7105 30.4585 49.272 30.7849 47.5555 30.7849H36.1501ZM40.5744 26.6688H47.0115C47.7731 26.6688 48.456 26.5177 49.0605 26.2155C49.6649 25.9012 50.1363 25.466 50.4748 24.91C50.8254 24.3418 51.0007 23.6709 51.0007 22.8972C51.0007 22.1961 50.8495 21.5675 50.5473 21.0115C50.2451 20.4554 49.8039 20.0142 49.2237 19.6878C48.6434 19.3493 47.9483 19.1801 47.1384 19.1801H40.5744V26.6688ZM40.5744 15.1002H46.4494C47.078 15.1002 47.6401 14.9793 48.1357 14.7376C48.6313 14.4958 49.0242 14.1392 49.3143 13.6678C49.6044 13.1963 49.7495 12.6161 49.7495 11.927C49.7495 11.0204 49.4594 10.2649 48.8791 9.66046C48.2989 9.05604 47.489 8.75383 46.4494 8.75383H40.5744V15.1002ZM67.6775 31.3289C65.7192 31.3289 64.0087 30.8877 62.546 30.0052C61.0833 29.1228 59.947 27.9079 59.1371 26.3606C58.3392 24.8012 57.9403 23.0121 57.9403 20.9933C57.9403 18.9383 58.3513 17.1371 59.1733 15.5898C59.9954 14.0425 61.1377 12.8337 62.6004 11.9633C64.0631 11.0929 65.7555 10.6578 67.6775 10.6578C69.6479 10.6578 71.3645 11.099 72.8272 11.9814C74.2899 12.8639 75.4262 14.0848 76.2361 15.6442C77.046 17.1915 77.451 18.9746 77.451 20.9933C77.451 23.0242 77.04 24.8193 76.218 26.3787C75.408 27.926 74.2717 29.1409 72.809 30.0233C71.3463 30.8937 69.6358 31.3289 67.6775 31.3289ZM67.6775 27.2309C69.4183 27.2309 70.7117 26.6507 71.5579 25.4902C72.4041 24.3297 72.8272 22.8308 72.8272 20.9933C72.8272 19.0954 72.398 17.5844 71.5398 16.4602C70.6815 15.3239 69.3941 14.7557 67.6775 14.7557C66.505 14.7557 65.5379 15.0217 64.7763 15.5535C64.0268 16.0733 63.4708 16.8047 63.1081 17.7476C62.7455 18.6784 62.5641 19.7603 62.5641 20.9933C62.5641 22.8912 62.9933 24.4083 63.8515 25.5446C64.7219 26.6688 65.9972 27.2309 67.6775 27.2309ZM81.8088 30.7849V4.13002H86.1787V30.7849H81.8088ZM99.4617 31.3289C97.6605 31.3289 96.089 30.8756 94.7472 29.9689C93.4054 29.0623 92.3658 27.8293 91.6284 26.2699C90.891 24.7105 90.5223 22.9516 90.5223 20.9933C90.5223 19.0108 90.891 17.2459 91.6284 15.6986C92.3779 14.1392 93.4356 12.9122 94.8016 12.0177C96.1676 11.1111 97.7753 10.6578 99.6249 10.6578C101.486 10.6578 103.046 11.1111 104.303 12.0177C105.572 12.9122 106.533 14.1392 107.186 15.6986C107.839 17.258 108.165 19.0229 108.165 20.9933C108.165 22.9396 107.839 24.6984 107.186 26.2699C106.533 27.8293 105.56 29.0623 104.267 29.9689C102.973 30.8756 101.372 31.3289 99.4617 31.3289ZM100.133 27.4123C101.305 27.4123 102.248 27.1463 102.961 26.6144C103.687 26.0704 104.212 25.3149 104.539 24.3478C104.877 23.3808 105.046 22.2626 105.046 20.9933C105.046 19.712 104.877 18.5938 104.539 17.6388C104.212 16.6717 103.699 15.9222 102.998 15.3904C102.296 14.8464 101.39 14.5744 100.278 14.5744C99.1051 14.5744 98.138 14.8645 97.3764 15.4448C96.6148 16.0129 96.0527 16.7866 95.6901 17.7657C95.3274 18.7328 95.1461 19.8087 95.1461 20.9933C95.1461 22.1901 95.3214 23.278 95.672 24.2572C96.0346 25.2243 96.5846 25.9919 97.322 26.56C98.0594 27.1282 98.9963 27.4123 100.133 27.4123ZM105.046 30.7849V17.0404H104.503V4.674H108.909V30.7849H105.046ZM122.642 31.3289C120.684 31.3289 118.973 30.8877 117.51 30.0052C116.048 29.1228 114.911 27.9079 114.101 26.3606C113.304 24.8012 112.905 23.0121 112.905 20.9933C112.905 18.9383 113.316 17.1371 114.138 15.5898C114.96 14.0425 116.102 12.8337 117.565 11.9633C119.027 11.0929 120.72 10.6578 122.642 10.6578C124.612 10.6578 126.329 11.099 127.792 11.9814C129.254 12.8639 130.391 14.0848 131.2 15.6442C132.01 17.1915 132.415 18.9746 132.415 20.9933C132.415 23.0242 132.004 24.8193 131.182 26.3787C130.372 27.926 129.236 29.1409 127.773 30.0233C126.311 30.8937 124.6 31.3289 122.642 31.3289ZM122.642 27.2309C124.383 27.2309 125.676 26.6507 126.522 25.4902C127.368 24.3297 127.792 22.8308 127.792 20.9933C127.792 19.0954 127.362 17.5844 126.504 16.4602C125.646 15.3239 124.358 14.7557 122.642 14.7557C121.469 14.7557 120.502 15.0217 119.741 15.5535C118.991 16.0733 118.435 16.8047 118.072 17.7476C117.71 18.6784 117.529 19.7603 117.529 20.9933C117.529 22.8912 117.958 24.4083 118.816 25.5446C119.686 26.6688 120.962 27.2309 122.642 27.2309Z" fill="white"/>
<path d="M0.382324 16.7849H14.6999C19.5833 16.7849 23.542 20.7437 23.542 25.627C23.542 30.5104 19.5833 34.4691 14.6999 34.4691H0.382324V16.7849Z" fill="white"/>
<path d="M0.382324 1.31128H9.86186C13.5244 1.31128 16.4934 4.28034 16.4934 7.94286C16.4934 11.6054 13.5244 14.5744 9.86186 14.5744H0.382324V1.31128Z" fill="white"/>
</svg>
