<svg width="147" height="38" viewBox="0 0 147 38" fill="none" xmlns="http://www.w3.org/2000/svg">
<g clip-path="url(#clip0_1173_9)">
<path d="M9.33952 3.0277C9.30212 2.95555 9.27931 2.87675 9.27239 2.79578C9.26546 2.71482 9.27455 2.63329 9.29914 2.55584C9.32374 2.47839 9.36335 2.40655 9.41571 2.34442C9.46808 2.28228 9.53218 2.23107 9.60434 2.19372C11.8186 1.06773 14.2783 0.510498 16.7616 0.572254C19.2449 0.634011 21.6738 1.31282 23.8294 2.54747C23.9001 2.58813 23.962 2.64239 24.0117 2.70711C24.0613 2.77184 24.0976 2.84575 24.1186 2.92458C24.1395 3.00341 24.1446 3.08561 24.1336 3.16642C24.1226 3.24724 24.0957 3.32508 24.0544 3.39545L16.9334 15.6167C16.879 15.7103 16.801 15.788 16.7072 15.8419C16.6134 15.8958 16.507 15.9241 16.3988 15.9239H16.383C16.2722 15.921 16.1642 15.8884 16.0702 15.8296C15.9761 15.7708 15.8996 15.6879 15.8484 15.5895L9.33952 3.0277ZM16.0168 19.1833V19.182L9.5076 6.62025C9.432 6.47482 9.30194 6.3652 9.1458 6.31533C8.98967 6.26546 8.82015 6.27938 8.67424 6.35407C6.93947 7.24357 5.39745 8.46691 4.13667 9.95389C2.87589 11.4409 1.92119 13.1622 1.32735 15.0191C0.733515 16.8759 0.512238 18.8318 0.67622 20.7744C0.840202 22.7171 1.38621 24.6082 2.28292 26.3392C3.17962 28.0703 4.40937 29.6072 5.90157 30.8618C7.39377 32.1164 9.11904 33.0639 10.9784 33.65C12.8377 34.2362 14.7945 34.4493 16.7364 34.2773C18.6783 34.1052 20.5671 33.5513 22.2945 32.6474C22.4395 32.5715 22.5487 32.4412 22.5981 32.285C22.6475 32.1289 22.6331 31.9596 22.5582 31.814L16.0168 19.1833ZM23.6468 31.0568L23.6964 31.1559C23.7712 31.302 23.9 31.4131 24.0556 31.4655C24.1194 31.4867 24.1867 31.4951 24.2537 31.4903C24.3517 31.4876 24.4484 31.4666 24.5386 31.4284C24.7641 31.3166 24.9833 31.1926 25.1951 31.0568C25.8251 30.6913 26.4256 30.2771 26.9911 29.8181H23.0027L23.6468 31.0568ZM22.3586 28.5795H28.3413C28.7259 28.193 29.0819 27.779 29.4065 27.3409H21.7145L22.3586 28.5795ZM21.0828 26.1022H30.2859C30.5396 25.7045 30.7672 25.2908 30.9672 24.8636H20.4387L21.0828 26.1022ZM19.7946 23.6249H31.5122C31.6765 23.2206 31.8172 22.807 31.9333 22.3863H19.1505L19.7946 23.6249ZM18.5064 21.1476H32.243C32.3173 20.7389 32.3792 20.3301 32.4164 19.909H17.8747L18.5064 21.1476ZM25.1456 5.49123C25.076 5.448 24.9981 5.42011 24.9169 5.40943C24.8357 5.39875 24.7532 5.40552 24.6749 5.4293C24.5946 5.44762 24.5191 5.4824 24.453 5.53144C24.3869 5.58048 24.3317 5.64271 24.2909 5.71418L23.9565 6.28396H26.347C25.961 5.99842 25.5599 5.7338 25.1456 5.49123ZM27.8458 7.5226H23.2381L22.5196 8.76124H29.0225C28.656 8.32463 28.2631 7.91097 27.8458 7.5226ZM29.9515 9.99988H21.7888L21.0704 11.2385H30.7071C30.4836 10.809 30.2311 10.3952 29.9515 9.99988ZM31.3016 12.4772H20.352L19.6336 13.7158H31.7847C31.6474 13.2941 31.4861 12.8805 31.3016 12.4772ZM32.1315 14.9544H18.9028L18.1844 16.1931H32.3545C32.3053 15.7761 32.2308 15.3624 32.1315 14.9544ZM32.4783 17.4317H17.466L17.1687 17.9396C17.115 18.029 17.0857 18.1309 17.0835 18.2352C17.0813 18.3395 17.1064 18.4425 17.1563 18.5341L17.2306 18.6704H32.5031C32.5155 18.5465 32.5155 18.4103 32.5155 18.2864C32.5155 18.0015 32.5031 17.7166 32.4783 17.4317Z" fill="white"/>
<path d="M9.05493 5.74186C8.82789 5.31163 8.29351 5.14483 7.87668 5.39562C4.57681 7.38098 2.11141 10.5169 0.968003 14.2157C-0.262366 18.1959 0.13876 22.5018 2.08314 26.1861C4.02752 29.8705 7.35587 32.6316 11.336 33.862C15.0348 35.0054 19.015 34.7398 22.5162 33.1359C22.9585 32.9334 23.1224 32.3981 22.8953 31.9678L15.9751 18.8549L9.05493 5.74186Z" fill="white"/>
</g>
<path d="M54.6157 6.82182C56.3371 6.82182 57.8036 7.09811 59.015 7.65067C60.2264 8.20324 61.1508 9.00021 61.7884 10.0416C62.426 11.083 62.7448 12.3475 62.7448 13.8352C62.7448 15.3228 62.426 16.5874 61.7884 17.6287C61.1508 18.6701 60.2264 19.4671 59.015 20.0196C57.8036 20.5722 56.3371 20.8485 54.6157 20.8485H50.4396V27.8618H44.9564V6.82182H54.6157ZM53.755 16.7361C54.9026 16.7361 55.7633 16.5023 56.3371 16.0348C56.9322 15.546 57.2298 14.8128 57.2298 13.8352C57.2298 12.8575 56.9322 12.135 56.3371 11.6674C55.7633 11.1786 54.9026 10.9342 53.755 10.9342H50.4396V16.7361H53.755ZM65.8679 27.8618V11.9224H70.6497L70.8729 15.3653C71.2767 14.1752 71.8717 13.2507 72.6581 12.5919C73.4657 11.9331 74.4858 11.6036 75.7184 11.6036C76.1222 11.6036 76.4623 11.6355 76.7386 11.6993C77.0361 11.763 77.2699 11.848 77.4399 11.9543L76.898 16.4173C76.6854 16.3323 76.4092 16.2686 76.0691 16.2261C75.7503 16.1623 75.3572 16.1304 74.8896 16.1304C74.252 16.1304 73.657 16.2686 73.1044 16.5449C72.5518 16.8211 72.1055 17.2356 71.7655 17.7881C71.4467 18.3194 71.2873 18.9995 71.2873 19.8284V27.8618H65.8679ZM87.1574 28.1806C85.3935 28.1806 83.8633 27.8512 82.5669 27.1924C81.2917 26.5335 80.3035 25.5878 79.6022 24.3552C78.9008 23.1225 78.5502 21.6348 78.5502 19.8921C78.5502 18.1494 78.9008 16.6617 79.6022 15.4291C80.3035 14.1964 81.2811 13.2507 82.535 12.5919C83.8102 11.9331 85.266 11.6036 86.9024 11.6036C88.5814 11.6036 90.0053 11.9331 91.1742 12.5919C92.3643 13.2295 93.2675 14.1221 93.8839 15.2697C94.5002 16.3961 94.8084 17.6925 94.8084 19.1589C94.8084 19.5415 94.7977 19.924 94.7765 20.3065C94.7552 20.6891 94.7233 21.0079 94.6808 21.2629H82.0568V18.3619H92.2899L89.7077 19.3502C89.7077 18.075 89.474 17.0974 89.0064 16.4173C88.5601 15.7373 87.8588 15.3972 86.9024 15.3972C86.2223 15.3972 85.6379 15.5566 85.1491 15.8754C84.6815 16.1942 84.3202 16.6936 84.0652 17.3737C83.8314 18.0538 83.7145 18.9251 83.7145 19.9878C83.7145 21.0291 83.8527 21.8792 84.129 22.5381C84.4052 23.1756 84.7984 23.6432 85.3085 23.9407C85.8185 24.217 86.4349 24.3552 87.1574 24.3552C87.965 24.3552 88.6026 24.1958 89.0702 23.877C89.559 23.5582 89.9203 23.1119 90.154 22.5381L94.4896 23.9726C94.192 24.8865 93.6713 25.6622 92.9275 26.2998C92.2049 26.9161 91.3336 27.3836 90.3134 27.7024C89.3146 28.0212 88.2626 28.1806 87.1574 28.1806ZM104.535 28.1806C102.941 28.1806 101.453 27.9256 100.072 27.4155C98.7114 26.8842 97.585 26.1297 96.6924 25.1521L99.2427 22.1555C99.7741 22.8356 100.475 23.4094 101.347 23.877C102.239 24.3233 103.228 24.5464 104.311 24.5464C104.97 24.5464 105.512 24.4508 105.937 24.2595C106.362 24.0682 106.575 23.7707 106.575 23.3669C106.575 23.0694 106.469 22.8356 106.256 22.6656C106.044 22.4743 105.618 22.3149 104.981 22.1874L102.749 21.7411C100.752 21.3373 99.3278 20.7422 98.4777 19.9559C97.6488 19.1483 97.2344 18.0963 97.2344 16.7999C97.2344 15.9285 97.5 15.0997 98.0313 14.3133C98.5627 13.5057 99.3809 12.8575 100.486 12.3687C101.591 11.8587 103.004 11.6036 104.726 11.6036C106.341 11.6036 107.765 11.8374 108.998 12.305C110.23 12.7725 111.208 13.4526 111.93 14.3452L109.348 17.2781C108.838 16.6405 108.179 16.1411 107.372 15.7798C106.564 15.4185 105.757 15.2378 104.949 15.2378C104.439 15.2378 104.003 15.291 103.642 15.3972C103.302 15.4822 103.047 15.6097 102.877 15.7798C102.707 15.9498 102.622 16.1623 102.622 16.4173C102.622 16.6936 102.749 16.938 103.004 17.1505C103.281 17.3418 103.78 17.5118 104.503 17.6606L107.404 18.2344C109.04 18.532 110.22 19.0739 110.942 19.8602C111.665 20.6466 112.026 21.5923 112.026 22.6975C112.026 23.7388 111.75 24.6739 111.197 25.5028C110.645 26.3316 109.816 26.9905 108.711 27.4793C107.606 27.9468 106.214 28.1806 104.535 28.1806ZM121.501 6.8537V22.1874C121.501 22.9525 121.681 23.5051 122.043 23.8451C122.425 24.1639 122.946 24.3233 123.605 24.3233C124.115 24.3233 124.55 24.2701 124.912 24.1639C125.294 24.0364 125.634 23.8557 125.932 23.6219L126.506 26.9692C125.974 27.3518 125.305 27.6493 124.497 27.8618C123.69 28.0743 122.861 28.1806 122.011 28.1806C120.799 28.1806 119.747 28.0106 118.855 27.6705C117.983 27.3305 117.303 26.7886 116.814 26.0447C116.347 25.3009 116.102 24.3126 116.081 23.08V8.352L121.501 6.8537ZM126.251 11.9224V15.7798H113.34V11.9224H126.251ZM136.341 11.6036C138.02 11.6036 139.486 11.9331 140.74 12.5919C142.015 13.2295 143.004 14.1752 143.705 15.4291C144.427 16.6617 144.789 18.1494 144.789 19.8921C144.789 21.6348 144.427 23.1331 143.705 24.387C143.004 25.6197 142.015 26.5654 140.74 27.2242C139.486 27.8618 138.02 28.1806 136.341 28.1806C134.704 28.1806 133.249 27.8618 131.974 27.2242C130.698 26.5654 129.7 25.6197 128.977 24.387C128.276 23.1331 127.925 21.6348 127.925 19.8921C127.925 18.1494 128.276 16.6617 128.977 15.4291C129.7 14.1752 130.698 13.2295 131.974 12.5919C133.249 11.9331 134.704 11.6036 136.341 11.6036ZM136.341 15.461C135.725 15.461 135.193 15.6097 134.747 15.9073C134.301 16.2048 133.961 16.683 133.727 17.3418C133.493 18.0006 133.376 18.8507 133.376 19.8921C133.376 20.9335 133.493 21.7836 133.727 22.4424C133.961 23.08 134.301 23.5582 134.747 23.877C135.193 24.1745 135.725 24.3233 136.341 24.3233C136.978 24.3233 137.52 24.1745 137.967 23.877C138.413 23.5582 138.753 23.08 138.987 22.4424C139.221 21.7836 139.338 20.9335 139.338 19.8921C139.338 18.8507 139.221 18.0006 138.987 17.3418C138.753 16.683 138.413 16.2048 137.967 15.9073C137.52 15.6097 136.978 15.461 136.341 15.461Z" fill="white"/>
<defs>
<clipPath id="clip0_1173_9">
<rect width="32.745" height="34.8351" fill="white" transform="translate(-0.0115356 0.015625)"/>
</clipPath>
</defs>
</svg>
