<svg width="148" height="38" viewBox="0 0 148 38" fill="none" xmlns="http://www.w3.org/2000/svg">
<g clip-path="url(#clip0_811_539)">
<g clip-path="url(#clip1_811_539)">
<path d="M10.0823 3.0277C10.045 2.95555 10.0221 2.87675 10.0152 2.79578C10.0083 2.71482 10.0174 2.63329 10.042 2.55584C10.0666 2.47839 10.1062 2.40655 10.1585 2.34442C10.2109 2.28228 10.275 2.23107 10.3472 2.19372C12.5614 1.06773 15.0211 0.510498 17.5044 0.572254C19.9877 0.634011 22.4167 1.31282 24.5722 2.54747C24.6429 2.58813 24.7049 2.64239 24.7545 2.70711C24.8041 2.77184 24.8405 2.84575 24.8614 2.92458C24.8823 3.00341 24.8874 3.08561 24.8764 3.16642C24.8654 3.24724 24.8385 3.32508 24.7973 3.39545L17.6762 15.6167C17.6219 15.7103 17.5439 15.788 17.45 15.8419C17.3562 15.8958 17.2498 15.9241 17.1416 15.9239H17.1259C17.015 15.921 16.907 15.8884 16.813 15.8296C16.719 15.7708 16.6424 15.6879 16.5913 15.5895L10.0823 3.0277ZM16.7596 19.1833V19.182L10.2504 6.62025C10.1748 6.47482 10.0448 6.3652 9.88863 6.31533C9.7325 6.26546 9.56297 6.27938 9.41707 6.35407C7.6823 7.24357 6.14027 8.46691 4.8795 9.95389C3.61872 11.4409 2.66402 13.1622 2.07018 15.0191C1.47634 16.8759 1.25507 18.8318 1.41905 20.7744C1.58303 22.7171 2.12904 24.6082 3.02575 26.3392C3.92245 28.0703 5.1522 29.6072 6.6444 30.8618C8.1366 32.1164 9.86187 33.0639 11.7212 33.65C13.5805 34.2362 15.5373 34.4493 17.4792 34.2773C19.4212 34.1052 21.31 33.5513 23.0373 32.6474C23.1824 32.5715 23.2915 32.4412 23.3409 32.285C23.3903 32.1289 23.376 31.9596 23.301 31.814L16.7596 19.1833ZM24.3896 31.0568L24.4392 31.1559C24.514 31.302 24.6429 31.4131 24.7984 31.4655C24.8622 31.4867 24.9295 31.4951 24.9966 31.4903C25.0946 31.4876 25.1912 31.4666 25.2815 31.4284C25.5069 31.3166 25.7261 31.1926 25.9379 31.0568C26.5679 30.6913 27.1684 30.2771 27.734 29.8181H23.7455L24.3896 31.0568ZM23.1015 28.5795H29.0841C29.4687 28.193 29.8248 27.779 30.1493 27.3409H22.4574L23.1015 28.5795ZM21.8257 26.1022H31.0288C31.2825 25.7045 31.51 25.2908 31.71 24.8636H21.1816L21.8257 26.1022ZM20.5375 23.6249H32.255C32.4194 23.2206 32.56 22.807 32.6761 22.3863H19.8934L20.5375 23.6249ZM19.2493 21.1476H32.9858C33.0601 20.7389 33.1221 20.3301 33.1592 19.909H18.6176L19.2493 21.1476ZM25.8884 5.49123C25.8189 5.448 25.7409 5.42011 25.6597 5.40943C25.5786 5.39875 25.4961 5.40552 25.4177 5.4293C25.3375 5.44762 25.2619 5.4824 25.1958 5.53144C25.1297 5.58048 25.0745 5.64271 25.0337 5.71418L24.6993 6.28396H27.0899C26.7038 5.99842 26.3028 5.7338 25.8884 5.49123ZM28.5886 7.5226H23.9809L23.2625 8.76124H29.7653C29.3989 8.32463 29.0059 7.91097 28.5886 7.5226ZM30.6943 9.99988H22.5317L21.8133 11.2385H31.4499C31.2264 10.809 30.974 10.3952 30.6943 9.99988ZM32.0444 12.4772H21.0949L20.3764 13.7158H32.5275C32.3902 13.2941 32.2289 12.8805 32.0444 12.4772ZM32.8743 14.9544H19.6456L18.9272 16.1931H33.0973C33.0481 15.7761 32.9737 15.3624 32.8743 14.9544ZM33.2211 17.4317H18.2088L17.9115 17.9396C17.8579 18.029 17.8285 18.1309 17.8263 18.2352C17.8242 18.3395 17.8493 18.4425 17.8992 18.5341L17.9735 18.6704H33.2459C33.2583 18.5465 33.2583 18.4103 33.2583 18.2864C33.2583 18.0015 33.2459 17.7166 33.2211 17.4317Z" fill="white"/>
<path d="M9.79779 5.74186C9.57075 5.31163 9.03637 5.14483 8.61954 5.39562C5.31966 7.38098 2.85427 10.5169 1.71086 14.2157C0.480492 18.1959 0.881618 22.5018 2.826 26.1861C4.77038 29.8705 8.09873 32.6316 12.0789 33.862C15.7777 35.0054 19.7579 34.7398 23.2591 33.1359C23.7013 32.9334 23.8652 32.3981 23.6382 31.9678L16.718 18.8549L9.79779 5.74186Z" fill="white"/>
</g>
<path d="M55.3586 6.82182C57.08 6.82182 58.5464 7.09811 59.7578 7.65067C60.9692 8.20324 61.8937 9.00021 62.5313 10.0416C63.1689 11.083 63.4876 12.3475 63.4876 13.8352C63.4876 15.3228 63.1689 16.5874 62.5313 17.6287C61.8937 18.6701 60.9692 19.4671 59.7578 20.0196C58.5464 20.5722 57.08 20.8485 55.3586 20.8485H51.1824V27.8618H45.6993V6.82182H55.3586ZM54.4978 16.7361C55.6455 16.7361 56.5062 16.5023 57.08 16.0348C57.6751 15.546 57.9726 14.8128 57.9726 13.8352C57.9726 12.8575 57.6751 12.135 57.08 11.6674C56.5062 11.1786 55.6455 10.9342 54.4978 10.9342H51.1824V16.7361H54.4978ZM66.6108 27.8618V11.9224H71.3926L71.6157 15.3653C72.0195 14.1752 72.6146 13.2507 73.4009 12.5919C74.2085 11.9331 75.2287 11.6036 76.4613 11.6036C76.8651 11.6036 77.2051 11.6355 77.4814 11.6993C77.779 11.763 78.0127 11.848 78.1828 11.9543L77.6408 16.4173C77.4283 16.3323 77.152 16.2686 76.812 16.2261C76.4932 16.1623 76.1 16.1304 75.6325 16.1304C74.9949 16.1304 74.3998 16.2686 73.8472 16.5449C73.2947 16.8211 72.8484 17.2356 72.5083 17.7881C72.1895 18.3194 72.0302 18.9995 72.0302 19.8284V27.8618H66.6108ZM87.9003 28.1806C86.1363 28.1806 84.6062 27.8512 83.3098 27.1924C82.0346 26.5335 81.0464 25.5878 80.345 24.3552C79.6437 23.1225 79.293 21.6348 79.293 19.8921C79.293 18.1494 79.6437 16.6617 80.345 15.4291C81.0464 14.1964 82.024 13.2507 83.2779 12.5919C84.553 11.9331 86.0088 11.6036 87.6453 11.6036C89.3242 11.6036 90.7481 11.9331 91.917 12.5919C93.1072 13.2295 94.0104 14.1221 94.6267 15.2697C95.243 16.3961 95.5512 17.6925 95.5512 19.1589C95.5512 19.5415 95.5406 19.924 95.5193 20.3065C95.4981 20.6891 95.4662 21.0079 95.4237 21.2629H82.7997V18.3619H93.0328L90.4506 19.3502C90.4506 18.075 90.2168 17.0974 89.7493 16.4173C89.303 15.7373 88.6016 15.3972 87.6453 15.3972C86.9652 15.3972 86.3807 15.5566 85.8919 15.8754C85.4244 16.1942 85.0631 16.6936 84.8081 17.3737C84.5743 18.0538 84.4574 18.9251 84.4574 19.9878C84.4574 21.0291 84.5955 21.8792 84.8718 22.5381C85.1481 23.1756 85.5413 23.6432 86.0513 23.9407C86.5614 24.217 87.1777 24.3552 87.9003 24.3552C88.7079 24.3552 89.3455 24.1958 89.813 23.877C90.3018 23.5582 90.6631 23.1119 90.8969 22.5381L95.2324 23.9726C94.9349 24.8865 94.4142 25.6622 93.6704 26.2998C92.9478 26.9161 92.0764 27.3836 91.0563 27.7024C90.0574 28.0212 89.0054 28.1806 87.9003 28.1806ZM105.277 28.1806C103.684 28.1806 102.196 27.9256 100.814 27.4155C99.4543 26.8842 98.3279 26.1297 97.4353 25.1521L99.9856 22.1555C100.517 22.8356 101.218 23.4094 102.09 23.877C102.982 24.3233 103.97 24.5464 105.054 24.5464C105.713 24.5464 106.255 24.4508 106.68 24.2595C107.105 24.0682 107.318 23.7707 107.318 23.3669C107.318 23.0694 107.211 22.8356 106.999 22.6656C106.786 22.4743 106.361 22.3149 105.724 22.1874L103.492 21.7411C101.495 21.3373 100.071 20.7422 99.2205 19.9559C98.3917 19.1483 97.9772 18.0963 97.9772 16.7999C97.9772 15.9285 98.2429 15.0997 98.7742 14.3133C99.3055 13.5057 100.124 12.8575 101.229 12.3687C102.334 11.8587 103.747 11.6036 105.469 11.6036C107.084 11.6036 108.508 11.8374 109.741 12.305C110.973 12.7725 111.951 13.4526 112.673 14.3452L110.091 17.2781C109.581 16.6405 108.922 16.1411 108.115 15.7798C107.307 15.4185 106.499 15.2378 105.692 15.2378C105.182 15.2378 104.746 15.291 104.385 15.3972C104.045 15.4822 103.79 15.6097 103.62 15.7798C103.45 15.9498 103.365 16.1623 103.365 16.4173C103.365 16.6936 103.492 16.938 103.747 17.1505C104.024 17.3418 104.523 17.5118 105.246 17.6606L108.147 18.2344C109.783 18.532 110.963 19.0739 111.685 19.8602C112.408 20.6466 112.769 21.5923 112.769 22.6975C112.769 23.7388 112.493 24.6739 111.94 25.5028C111.388 26.3316 110.559 26.9905 109.454 27.4793C108.348 27.9468 106.956 28.1806 105.277 28.1806ZM122.243 6.8537V22.1874C122.243 22.9525 122.424 23.5051 122.785 23.8451C123.168 24.1639 123.689 24.3233 124.347 24.3233C124.858 24.3233 125.293 24.2701 125.654 24.1639C126.037 24.0364 126.377 23.8557 126.675 23.6219L127.248 26.9692C126.717 27.3518 126.048 27.6493 125.24 27.8618C124.432 28.0743 123.604 28.1806 122.754 28.1806C121.542 28.1806 120.49 28.0106 119.598 27.6705C118.726 27.3305 118.046 26.7886 117.557 26.0447C117.09 25.3009 116.845 24.3126 116.824 23.08V8.352L122.243 6.8537ZM126.993 11.9224V15.7798H114.082V11.9224H126.993ZM137.084 11.6036C138.763 11.6036 140.229 11.9331 141.483 12.5919C142.758 13.2295 143.746 14.1752 144.448 15.4291C145.17 16.6617 145.532 18.1494 145.532 19.8921C145.532 21.6348 145.17 23.1331 144.448 24.387C143.746 25.6197 142.758 26.5654 141.483 27.2242C140.229 27.8618 138.763 28.1806 137.084 28.1806C135.447 28.1806 133.992 27.8618 132.716 27.2242C131.441 26.5654 130.442 25.6197 129.72 24.387C129.018 23.1331 128.668 21.6348 128.668 19.8921C128.668 18.1494 129.018 16.6617 129.72 15.4291C130.442 14.1752 131.441 13.2295 132.716 12.5919C133.992 11.9331 135.447 11.6036 137.084 11.6036ZM137.084 15.461C136.467 15.461 135.936 15.6097 135.49 15.9073C135.044 16.2048 134.703 16.683 134.47 17.3418C134.236 18.0006 134.119 18.8507 134.119 19.8921C134.119 20.9335 134.236 21.7836 134.47 22.4424C134.703 23.08 135.044 23.5582 135.49 23.877C135.936 24.1745 136.467 24.3233 137.084 24.3233C137.721 24.3233 138.263 24.1745 138.71 23.877C139.156 23.5582 139.496 23.08 139.73 22.4424C139.963 21.7836 140.08 20.9335 140.08 19.8921C140.08 18.8507 139.963 18.0006 139.73 17.3418C139.496 16.683 139.156 16.2048 138.71 15.9073C138.263 15.6097 137.721 15.461 137.084 15.461Z" fill="white"/>
</g>
<defs>
<clipPath id="clip0_811_539">
<rect width="146.513" height="41.2903" fill="white" transform="translate(0.922485 -4.13818)"/>
</clipPath>
<clipPath id="clip1_811_539">
<rect width="32.745" height="34.8351" fill="white" transform="translate(0.731323 0.015625)"/>
</clipPath>
</defs>
</svg>
